<svg width="72" height="72" viewBox="0 0 72 72" fill="none" xmlns="http://www.w3.org/2000/svg">
<rect width="72" height="72" rx="8" fill="#E1F4FF"/>
<path d="M49.598 26.4241L51.0764 25.5001H49.333H22.6663H20.9229L22.4013 26.4241L35.7347 34.7574L35.9997 34.923L36.2647 34.7574L49.598 26.4241ZM49.333 46.5001H49.833V46.0001V29.3334V28.4313L49.068 28.9094L35.9997 37.0771L22.9313 28.9094L22.1663 28.4313V29.3334V46.0001V46.5001H22.6663H49.333ZM49.333 23.1667C50.8902 23.1667 52.1663 24.4429 52.1663 26.0001V46.0001C52.1663 47.5573 50.8902 48.8334 49.333 48.8334H22.6663C21.1092 48.8334 19.833 47.5573 19.833 46.0001V26.0001C19.833 24.4429 21.1092 23.1667 22.6663 23.1667H49.333Z" fill="#31A0FE" stroke="#31A0FE"/>
</svg>
