<svg width="72" height="72" viewBox="0 0 72 72" fill="none" xmlns="http://www.w3.org/2000/svg">
<rect width="72" height="72" rx="8" fill="#E1F4FF"/>
<path d="M35.4997 27.6667V28.1667H35.9997H49.333C50.8902 28.1667 52.1663 29.4428 52.1663 31V47.6667C52.1663 49.2239 50.8902 50.5 49.333 50.5H22.6663C21.1092 50.5 19.833 49.2239 19.833 47.6667V24.3333C19.833 22.7761 21.1092 21.5 22.6663 21.5H32.6663C34.2235 21.5 35.4997 22.7761 35.4997 24.3333V27.6667ZM25.9997 48.1667H26.4997V47.6667V44.3333V43.8333H25.9997H22.6663H22.1663V44.3333V47.6667V48.1667H22.6663H25.9997ZM25.9997 41.5H26.4997V41V37.6667V37.1667H25.9997H22.6663H22.1663V37.6667V41V41.5H22.6663H25.9997ZM25.9997 34.8333H26.4997V34.3333V31V30.5H25.9997H22.6663H22.1663V31V34.3333V34.8333H22.6663H25.9997ZM25.9997 28.1667H26.4997V27.6667V24.3333V23.8333H25.9997H22.6663H22.1663V24.3333V27.6667V28.1667H22.6663H25.9997ZM32.6663 48.1667H33.1663V47.6667V44.3333V43.8333H32.6663H29.333H28.833V44.3333V47.6667V48.1667H29.333H32.6663ZM32.6663 41.5H33.1663V41V37.6667V37.1667H32.6663H29.333H28.833V37.6667V41V41.5H29.333H32.6663ZM32.6663 34.8333H33.1663V34.3333V31V30.5H32.6663H29.333H28.833V31V34.3333V34.8333H29.333H32.6663ZM32.6663 28.1667H33.1663V27.6667V24.3333V23.8333H32.6663H29.333H28.833V24.3333V27.6667V28.1667H29.333H32.6663ZM35.4997 47.6667V48.1667H35.9997H47.6663C48.8592 48.1667 49.833 47.1928 49.833 46V32.6667C49.833 31.4739 48.8592 30.5 47.6663 30.5H35.9997H35.4997V31V34.3333V34.8333H35.9997H38.833V37.1667H35.9997H35.4997V37.6667V41V41.5H35.9997H38.833V43.8333H35.9997H35.4997V44.3333V47.6667ZM43.1663 37.1667V34.8333H45.4997V37.1667H43.1663ZM43.1663 43.8333V41.5H45.4997V43.8333H43.1663Z" fill="#31A0FE" stroke="#31A0FE"/>
</svg>
